REM DIRINDEX 1\2,1\3\7,1\3\8,1\4\9,1\4\10,1\4\11,1\5\12,1\5\13,1\5\14,1\6\15,1\6\16,1\6\17
REM DIRNAME "folder01","folder02","folder03","folder04","folder05","folder06","folder07","folder08","folder09","folder10","folder11","folder12","folder13","folder14","folder15","folder16","folder17"
TITLE ""
FILE "2Q_k_041-050.mp3" MP3
  TRACK 01 AUDIO
    TITLE "12:cjc174_1484"
    INDEX 01 00:00:00
  TRACK 02 AUDIO
    TITLE "0:"
    INDEX 01 00:01:37
  TRACK 03 AUDIO
    TITLE "13:cjc174_1485"
    INDEX 01 00:02:11
  TRACK 04 AUDIO
    TITLE "0:"
    INDEX 01 00:04:26
  TRACK 05 AUDIO
    TITLE "14:cjc174_1486"
    INDEX 01 00:04:71
  TRACK 06 AUDIO
    TITLE "14:cjc174_1487"
    INDEX 01 00:08:41
  TRACK 07 AUDIO
    TITLE "0:"
    INDEX 01 00:12:25
  TRACK 08 AUDIO
    TITLE "12:cjc174_1488"
    INDEX 01 00:12:72
  TRACK 09 AUDIO
    TITLE "0:"
    INDEX 01 00:15:04
  TRACK 10 AUDIO
    TITLE "13:cjc174_1489"
    INDEX 01 00:15:55
  TRACK 11 AUDIO
    TITLE "0:"
    INDEX 01 00:17:71
  TRACK 12 AUDIO
    TITLE "14:cjc174_1490"
    INDEX 01 00:18:45
  TRACK 13 AUDIO
    TITLE "14:cjc174_1491"
    INDEX 01 00:21:26
  TRACK 14 AUDIO
    TITLE "0:"
    INDEX 01 00:26:59
  TRACK 15 AUDIO
    TITLE "12:cjc174_1492"
    INDEX 01 00:27:31
  TRACK 16 AUDIO
    TITLE "0:"
    INDEX 01 00:29:28
  TRACK 17 AUDIO
    TITLE "13:cjc174_1493"
    INDEX 01 00:29:73
  TRACK 18 AUDIO
    TITLE "0:"
    INDEX 01 00:31:42
  TRACK 19 AUDIO
    TITLE "14:cjc174_1494"
    INDEX 01 00:32:16
  TRACK 20 AUDIO
    TITLE "14:cjc174_1495"
    INDEX 01 00:35:28
  TRACK 21 AUDIO
    TITLE "14:cjc174_1496"
    INDEX 01 00:37:66
  TRACK 22 AUDIO
    TITLE "0:"
    INDEX 01 00:40:45
  TRACK 23 AUDIO
    TITLE "12:cjc174_1497"
    INDEX 01 00:41:17
  TRACK 24 AUDIO
    TITLE "0:"
    INDEX 01 00:42:60
  TRACK 25 AUDIO
    TITLE "13:cjc174_1498"
    INDEX 01 00:43:30
  TRACK 26 AUDIO
    TITLE "0:"
    INDEX 01 00:45:17
  TRACK 27 AUDIO
    TITLE "14:cjc174_1499"
    INDEX 01 00:45:64
  TRACK 28 AUDIO
    TITLE "14:cjc174_1500"
    INDEX 01 00:47:37
  TRACK 29 AUDIO
    TITLE "0:"
    INDEX 01 00:50:49
  TRACK 30 AUDIO
    TITLE "12:cjc174_1501"
    INDEX 01 00:51:19
  TRACK 31 AUDIO
    TITLE "0:"
    INDEX 01 00:54:08
  TRACK 32 AUDIO
    TITLE "13:cjc174_1502"
    INDEX 01 00:54:55
  TRACK 33 AUDIO
    TITLE "0:"
    INDEX 01 00:57:22
  TRACK 34 AUDIO
    TITLE "14:cjc174_1503"
    INDEX 01 00:57:67
  TRACK 35 AUDIO
    TITLE "14:cjc174_1504"
    INDEX 01 01:01:06
  TRACK 36 AUDIO
    TITLE "0:"
    INDEX 01 01:05:61
  TRACK 37 AUDIO
    TITLE "12:cjc174_1505"
    INDEX 01 01:06:37
  TRACK 38 AUDIO
    TITLE "0:"
    INDEX 01 01:07:69
  TRACK 39 AUDIO
    TITLE "13:cjc174_1506"
    INDEX 01 01:08:43
  TRACK 40 AUDIO
    TITLE "0:"
    INDEX 01 01:10:36
  TRACK 41 AUDIO
    TITLE "14:cjc174_1507"
    INDEX 01 01:11:06
  TRACK 42 AUDIO
    TITLE "14:cjc174_1508"
    INDEX 01 01:14:03
  TRACK 43 AUDIO
    TITLE "0:"
    INDEX 01 01:17:13
  TRACK 44 AUDIO
    TITLE "12:cjc174_1509"
    INDEX 01 01:17:58
  TRACK 45 AUDIO
    TITLE "0:"
    INDEX 01 01:19:22
  TRACK 46 AUDIO
    TITLE "13:cjc174_1510"
    INDEX 01 01:19:75
  TRACK 47 AUDIO
    TITLE "0:"
    INDEX 01 01:22:40
  TRACK 48 AUDIO
    TITLE "14:cjc174_1511"
    INDEX 01 01:23:12
  TRACK 49 AUDIO
    TITLE "14:cjc174_1512"
    INDEX 01 01:26:41
  TRACK 50 AUDIO
    TITLE "0:"
    INDEX 01 01:28:11
  TRACK 51 AUDIO
    TITLE "12:cjc174_1513"
    INDEX 01 01:28:66
  TRACK 52 AUDIO
    TITLE "0:"
    INDEX 01 01:30:70
  TRACK 53 AUDIO
    TITLE "13:cjc174_1514"
    INDEX 01 01:31:44
  TRACK 54 AUDIO
    TITLE "0:"
    INDEX 01 01:33:45
  TRACK 55 AUDIO
    TITLE "14:cjc174_1515"
    INDEX 01 01:34:17
  TRACK 56 AUDIO
    TITLE "14:cjc174_1516"
    INDEX 01 01:39:01
  TRACK 57 AUDIO
    TITLE "0:"
    INDEX 01 01:41:60
  TRACK 58 AUDIO
    TITLE "12:cjc174_1517"
    INDEX 01 01:42:31
  TRACK 59 AUDIO
    TITLE "0:"
    INDEX 01 01:44:41
  TRACK 60 AUDIO
    TITLE "13:cjc174_1518"
    INDEX 01 01:45:11
  TRACK 61 AUDIO
    TITLE "0:"
    INDEX 01 01:47:26
  TRACK 62 AUDIO
    TITLE "14:cjc174_1519"
    INDEX 01 01:47:69
  TRACK 63 AUDIO
    TITLE "14:cjc174_1520"
    INDEX 01 01:52:01
  TRACK 64 AUDIO
    TITLE "0:"
    INDEX 01 01:54:57
  TRACK 65 AUDIO
    TITLE "12:cjc174_1521"
    INDEX 01 01:55:29
  TRACK 66 AUDIO
    TITLE "0:"
    INDEX 01 01:57:18
  TRACK 67 AUDIO
    TITLE "13:cjc174_1522"
    INDEX 01 01:57:65
  TRACK 68 AUDIO
    TITLE "0:"
    INDEX 01 01:59:39
  TRACK 69 AUDIO
    TITLE "14:cjc174_1523"
    INDEX 01 02:00:11
  TRACK 70 AUDIO
    TITLE "14:cjc174_1524"
    INDEX 01 02:03:70
  TRACK 71 AUDIO
    TITLE "0:"
    INDEX 01 02:07:56
